<svg width="329" height="329" viewBox="0 0 329 329" fill="none" xmlns="http://www.w3.org/2000/svg">
<g clip-path="url(#clip0_3747_55154)">
<path d="M247.483 241.301V250.203C244.744 248.605 241.548 247.692 238.01 247.692C234.13 247.692 230.934 248.947 228.538 251.344C226.141 253.741 224.886 257.05 224.886 261.273C224.886 265.268 226.027 268.463 228.309 270.86C230.592 273.256 233.673 274.398 237.439 274.398C241.092 274.398 244.401 273.485 247.483 271.773V280.218C244.401 281.702 240.521 282.387 235.613 282.387C229.222 282.387 224.201 280.561 220.549 276.794C216.897 273.028 215.071 268.121 215.071 261.958C215.071 255.339 217.125 249.975 221.234 245.866C225.342 241.757 230.706 239.703 237.211 239.703H247.483V241.301ZM32.8104 239.817H22.539C15.9197 239.817 10.6698 241.872 6.56128 245.98C2.45272 250.089 0.398438 255.453 0.398438 262.072C0.398438 268.235 2.22446 273.256 5.87652 276.908C9.52857 280.675 14.5501 282.501 20.9412 282.501C25.8487 282.501 29.8431 281.816 32.8104 280.332V271.887C29.729 273.599 26.4193 274.512 22.7673 274.512C18.887 274.512 15.9197 273.371 13.6371 270.974C11.3546 268.577 10.2133 265.382 10.2133 261.387C10.2133 257.279 11.4687 253.969 13.8654 251.458C16.262 249.062 19.4576 247.806 23.3379 247.806C26.8758 247.806 30.0714 248.605 32.8104 250.317V241.415V239.817ZM58.0324 247.806C61.2279 247.806 63.7387 248.947 65.5648 251.344C67.3908 253.741 68.3038 257.05 68.3038 261.387C68.3038 265.496 67.3908 268.691 65.4506 270.974C63.5105 273.256 60.9997 274.398 57.8041 274.398C54.7227 274.398 52.0978 273.256 50.1577 270.86C48.2175 268.463 47.3045 265.268 47.3045 261.159C47.3045 257.165 48.2175 253.855 50.1577 251.458C52.2119 249.062 54.8369 247.806 58.0324 247.806ZM57.69 282.501C63.8529 282.501 68.7603 280.561 72.5265 276.566C76.2927 272.572 78.2328 267.322 78.2328 260.931C78.2328 254.654 76.4068 249.518 72.7547 245.638C69.1027 241.757 64.3094 239.817 58.3748 239.817C52.0978 239.817 47.0762 241.872 43.1959 245.866C39.4298 249.86 37.4896 255.224 37.4896 261.73C37.4896 267.892 39.3156 272.914 43.0818 276.794C46.848 280.561 51.7554 282.501 57.69 282.501ZM122.742 240.502H113.84V263.327C113.84 266.181 113.954 268.007 114.069 269.034H113.954C113.27 267.892 112.585 266.751 111.9 265.724L95.3518 240.616H85.1945V281.93H94.0964V259.219C94.0964 256.252 93.9823 253.969 93.8682 252.485H93.9823C94.3247 253.284 95.0094 254.426 96.0366 255.909L113.156 281.816H122.628V240.502H122.742ZM169.078 240.502H160.176V263.327C160.176 266.181 160.29 268.007 160.404 269.034H160.29C159.605 267.892 158.92 266.751 158.236 265.724L141.687 240.616H131.644V281.93H140.546V259.219C140.546 256.252 140.432 253.969 140.318 252.485H140.432C140.774 253.284 141.459 254.426 142.486 255.909L159.605 281.816H169.078V240.502ZM290.166 240.502H280.808V256.936H263.575V240.502H254.216V281.816H263.575V265.039H280.808V281.816H290.166V240.502ZM295.302 240.502V248.034H307.171V281.702H316.529V248.034H328.398V240.502H295.302ZM121.03 303.728V298.478H124.682C126.28 298.478 127.193 299.62 127.193 301.103C127.193 302.587 126.166 303.728 124.682 303.728H121.03ZM127.65 306.239C129.59 305.326 130.731 303.386 130.731 301.217C130.731 298.25 128.563 295.397 124.682 295.397C122.286 295.397 119.775 295.397 117.378 295.397V312.516H121.03V306.924H124.112L127.65 312.516H131.53V312.059L127.65 306.239ZM136.552 306.81C136.552 310.69 139.747 312.744 143.399 312.744C147.051 312.744 150.133 310.69 150.133 306.81V295.397H146.481V306.696C146.481 308.522 144.997 309.435 143.285 309.435C141.573 309.435 140.089 308.522 140.089 306.696V295.397H136.437V306.81M164.17 295.169C159.719 295.169 155.497 298.25 155.497 303.956C155.497 309.663 159.719 312.744 164.17 312.744C167.48 312.744 170.447 311.261 171.817 307.837C172.387 306.239 172.387 304.755 172.273 303.158H164.284V306.125H168.964C168.279 308.636 166.567 309.435 164.17 309.435C161.089 309.435 159.149 307.266 159.149 303.956C159.149 300.875 160.975 298.478 164.17 298.478C166.11 298.478 167.48 299.163 168.393 300.761H171.931C171.018 296.767 167.594 295.169 164.17 295.169ZM185.169 305.326C185.74 305.326 186.197 305.326 186.653 305.668C187.224 306.011 187.452 306.696 187.452 307.38C187.338 308.522 186.653 309.206 185.398 309.206H181.289V305.326H185.169ZM184.713 298.478C185.968 298.478 186.767 299.277 186.767 300.533C186.767 301.674 185.968 302.359 184.713 302.359H181.403V298.478H184.713ZM188.593 303.614C189.62 302.929 190.305 301.674 190.305 300.419C190.305 297.223 188.023 295.397 184.941 295.397H177.637V312.402H185.626C189.05 312.402 191.104 310.348 191.104 307.38C191.104 305.668 190.191 304.299 188.593 303.614ZM201.718 302.245L200.12 298.935L197.952 295.283H194.071V295.854L200.006 305.554V312.402H203.658V305.554L209.478 295.854V295.283H205.598L203.544 298.821L201.832 302.245H201.718ZM204.115 281.702L187.452 273.941L184.827 281.702H174.67L189.849 242.328L190.077 241.643L189.392 239.703H198.408L214.158 281.702H204.115ZM193.957 252.599L189.849 266.181L200.348 270.517L193.957 252.599ZM276.699 136.647C276.699 136.647 277.612 138.929 277.612 140.984C277.612 143.038 276.813 145.435 276.813 145.435V155.934C276.813 155.934 278.069 155.364 279.438 155.249C280.808 155.021 282.405 155.249 282.405 155.249C282.405 155.249 281.949 154.108 281.949 152.739C281.949 151.369 283.433 150 283.433 150C283.433 150 281.949 148.972 281.949 146.918C281.949 144.864 283.889 143.723 283.889 143.723C283.889 143.723 280.922 142.81 280.922 140.185C280.922 137.56 283.889 136.875 283.889 136.875C283.889 136.875 282.063 136.19 282.063 134.593L276.699 136.647ZM120.46 43.1771C115.895 63.834 124.682 74.1054 141.117 74.1054C156.524 74.1054 159.377 61.2091 159.377 53.5626C159.377 45.802 154.584 45.2314 154.584 45.2314L150.703 45.0031L149.79 44.889C150.931 40.8946 163.029 41.3511 163.029 41.3511C163.485 41.3511 163.714 41.3511 163.942 41.3511C165.083 41.3511 165.311 40.5522 165.426 39.8674L165.54 38.9544C165.54 38.9544 165.54 38.7262 165.654 38.3838C165.197 38.2696 164.855 38.1555 164.398 38.0414C162.458 37.5849 160.518 37.4708 158.578 37.5849C154.584 37.8131 150.703 38.8403 146.937 40.5522C143.171 42.3782 139.291 44.3184 135.182 45.4596C133.128 46.0303 131.073 46.6009 128.905 46.715C127.878 46.715 126.965 46.715 125.938 46.4868C126.851 46.6009 127.992 46.3726 128.905 46.2585C130.959 45.9161 132.899 45.2314 134.954 44.5466C136.78 43.7477 138.72 42.8347 140.546 41.8076C142.372 40.7804 144.084 39.7533 145.91 38.7262C149.676 36.6719 153.899 35.0741 158.35 34.5035C160.176 34.2752 162.116 34.1611 163.942 34.3893C158.92 30.3949 153.899 32.5633 152.187 33.4763C150.475 34.3893 149.448 34.6176 148.078 33.0198C146.709 31.422 143.97 33.2481 141.459 34.8458C137.465 37.3566 137.008 39.8674 137.008 39.8674C137.008 39.8674 134.726 35.6447 137.008 32.4492C139.291 29.2536 139.861 30.3949 141.573 27.8841C141.801 27.4276 142.144 27.1994 142.372 26.9711H142.258C142.258 26.9711 151.959 15.4443 168.279 16.5856C197.723 17.4986 198.294 53.2202 198.294 53.2202C198.294 53.2202 197.723 52.6496 194.984 50.4812C192.245 48.1987 189.963 47.3998 189.963 47.3998C189.963 47.3998 193.615 50.1388 195.555 54.5898C197.381 58.9266 198.294 67.2578 198.294 67.2578C198.294 67.2578 197.039 65.5459 194.756 62.8069C192.474 59.9537 189.849 57.8994 189.849 57.8994C189.849 57.8994 189.62 58.0136 189.05 60.0678C188.365 62.1221 187.68 70.111 194.186 72.3935C196.81 73.3065 200.348 73.3065 202.973 73.3065C205.598 73.3065 206.739 72.9641 209.593 73.1924C209.593 73.1924 211.19 73.3065 211.989 73.4207C217.125 74.2195 230.478 79.127 229.565 95.7895C229.451 98.4144 229.337 101.039 228.766 103.664C230.934 109.941 231.733 115.077 231.163 124.435C230.706 132.082 230.706 140.984 227.396 144.293L225.913 145.663C229.679 142.696 234.815 140.984 240.863 140.984C242.803 140.984 246.456 141.212 248.167 141.554L250.336 141.783C253.76 142.125 262.091 143.609 269.395 142.581L269.737 137.788L270.536 134.821C270.08 133.223 270.536 131.625 271.677 130.94C258.325 131.511 248.738 133.337 248.738 135.734V116.332C248.738 118.843 258.667 120.669 272.134 121.126C272.591 106.403 274.645 62.5786 281.492 16.6997C288.226 62.5786 290.394 106.403 290.851 121.126C304.089 120.555 313.676 118.729 313.676 116.332V135.962C313.676 133.908 307.057 132.31 297.242 131.511C297.698 132.082 297.927 132.881 297.927 133.68C297.927 135.163 297.128 136.419 296.101 136.875C297.698 137.103 298.84 138.587 298.84 140.299C298.84 142.125 297.47 143.609 295.758 143.723C297.014 144.179 297.927 145.435 297.927 147.032C297.927 148.972 296.557 150.456 294.959 150.456H294.731C295.302 151.141 295.644 152.054 295.644 153.081C295.644 155.021 294.503 156.505 293.133 156.505H286.97C289.595 157.988 291.307 160.499 291.307 163.352C291.307 167.918 286.628 171.684 280.922 171.684C275.33 171.684 270.764 168.146 270.536 163.695C252.504 170.657 225.114 174.651 219.522 174.537C212.446 174.423 210.391 174.879 203.202 175.45C197.723 175.906 194.3 163.238 192.588 155.249L191.218 146.348V165.749V165.977V208.661L191.332 231.714C169.877 194.167 149.79 212.541 149.79 212.541L164.741 180.243L165.54 178.531C165.54 178.531 161.774 181.613 155.497 183.439C151.616 184.58 147.508 185.037 147.508 185.037C142.829 185.607 139.519 187.547 139.975 191.542C140.318 195.422 146.481 193.14 146.481 193.14C146.481 193.14 143.97 195.308 140.318 195.308C138.035 195.308 136.323 193.368 136.095 191.428C135.296 187.433 139.176 185.493 139.176 185.493C139.176 185.493 130.845 186.634 130.845 195.764C130.845 206.378 146.481 203.753 146.481 203.753C132.785 210.715 122.4 202.498 122.97 194.167C123.541 185.379 128.334 180.243 142.258 178.531L143.399 178.417C148.877 177.39 151.73 175.336 151.73 175.336C157.893 172.254 159.833 168.146 162.687 161.869C165.54 155.592 166.453 149.201 166.909 145.663C166.224 151.141 155.839 163.238 150.361 164.95C149.334 164.38 144.769 161.526 143.513 160.271C140.089 161.869 137.921 163.01 134.726 165.521C138.492 168.26 141.573 166.32 144.54 167.689C148.421 169.287 149.22 175.222 145.453 177.504C145.796 176.135 146.595 174.651 145.111 173.966C140.774 175.336 138.834 171.798 136.552 170.428C129.818 166.662 125.367 173.167 118.748 167.347C116.009 166.091 111.101 169.972 109.275 171.912C106.194 173.167 104.71 171.341 103.911 171.798C103.227 172.825 103.341 172.825 104.14 174.423C100.373 172.368 100.944 167.119 103.455 165.293C106.422 163.01 111.672 165.863 114.069 163.467C113.84 162.668 106.764 159.7 99.3462 161.526C95.9224 161.412 95.0094 158.787 94.2105 158.787C92.9552 159.358 93.754 160.613 92.9552 161.298C91.5856 156.733 95.1236 153.309 99.118 153.88C103.455 154.565 108.933 160.043 113.612 158.217C111.672 154.108 104.824 153.309 105.851 149.429C104.14 147.717 101.971 151.255 102.542 149.885C104.025 146.348 109.047 146.348 111.672 147.375C115.78 149.087 114.525 153.538 117.721 156.847C120.231 159.358 123.769 161.526 127.536 161.184C131.758 159.7 136.552 158.673 140.204 156.162C139.291 154.793 136.894 150.228 136.323 148.972H136.209C143.057 146.918 147.508 142.924 149.676 137.674C143.856 141.326 116.808 147.032 96.9496 141.897L96.7213 141.783H96.8355C107.221 140.755 119.204 134.707 123.085 120.897L123.883 118.843C110.302 126.375 90.9009 132.652 68.8744 125.234C94.3247 119.071 104.025 98.4144 104.025 98.4144C84.8522 107.659 71.7276 108.458 46.2774 101.952L47.1904 101.724C77.6622 96.5884 88.8466 73.3065 88.8466 73.3065L88.6183 73.0783C53.6956 81.6378 43.9948 75.9314 23.5661 63.834L24.4792 64.0623C53.3532 70.7957 79.7165 51.8507 79.7165 51.8507C46.9621 53.6767 17.1751 32.5633 9.87095 25.2592C26.4193 32.5633 50.8424 31.422 62.7116 30.7373C74.5808 30.1667 95.1236 23.7756 108.248 27.6559L108.02 27.5417C115.666 29.2536 121.829 35.0741 120.46 43.1771ZM150.361 27.77C148.421 33.1339 160.518 26.1722 161.203 24.3462C161.203 24.3462 151.845 23.0908 150.361 27.77ZM283.204 150.228L283.318 150.114L283.09 150L283.204 150.228ZM276.699 136.647C276.699 136.647 277.612 138.929 277.612 140.984C277.612 143.038 276.813 145.435 276.813 145.435V155.934C276.813 155.934 278.069 155.364 279.438 155.249C280.808 155.021 282.405 155.249 282.405 155.249C282.405 155.249 281.949 154.108 281.949 152.739C281.949 151.369 283.433 150 283.433 150C283.433 150 281.949 148.972 281.949 146.918C281.949 144.864 283.889 143.723 283.889 143.723C283.889 143.723 280.922 142.81 280.922 140.185C280.922 137.56 283.889 136.875 283.889 136.875C283.889 136.875 282.063 136.19 282.063 134.593L276.699 136.647ZM281.036 35.873C280.123 46.2585 276.927 121.126 276.927 121.126H281.264L281.036 35.873Z" fill="#0DB04B"/>
</g>
<defs>
<clipPath id="clip0_3747_55154">
<rect width="328" height="295.93" fill="white" transform="translate(0.388672 16.6787)"/>
</clipPath>
</defs>
</svg>
