<?xml version="1.0" encoding="UTF-8"?>
<svg width="80px" height="80px" viewBox="0 0 80 80" version="1.1" xmlns="http://www.w3.org/2000/svg" xmlns:xlink="http://www.w3.org/1999/xlink">
    <!-- Generator: Sketch 55.2 (78181) - https://sketchapp.com -->
    <title>FFR_Logo_Match_80x80/Coq/Dark</title>
    <desc>Created with Sketch.</desc>
    <g id="FFR_Logo_Match_80x80/Coq/Dark" stroke="none" stroke-width="1" fill="none" fill-rule="evenodd">
        <g id="logo_FRANCE_RUGBY_corpo_2coul-Fond-blanc-rvb" transform="translate(7.000000, 0.000000)" fill-rule="nonzero">
            <g id="Group">
                <path d="M0.0586100386,43.4376997 C-0.15034749,30.0728435 5.68007722,16.9661342 17.7843243,16.5444089 C28.9584556,16.1559105 32.0902703,25.5744409 35.6833205,30.5047923 C37.1332819,32.4907348 38.6494981,34.2185304 40.4842471,34.428115 C42.8949035,34.7041534 44.5665637,31.6830671 43.200695,27.8594249 C42.3419305,25.4543131 40.0459459,19.0057508 39.3426255,15.913099 C38.6979151,13.0760383 38.4023166,10.141853 39.3222394,7.89009585 C36.8784556,5.36996805 36.3382239,2.68626198 36.3050965,1.18083067 C36.3025483,0.996805112 36.3050965,0.828115016 36.3127413,0.682428115 C36.3560618,-0.0971246006 36.7408494,-0.0460063898 37.0797683,0.115015974 C39.2712741,1.17827476 41.9520463,1.28306709 45.850888,2.50734824 C46.3528958,2.6658147 46.5516602,2.38210863 46.6459459,1.72779553 C46.7555212,0.966134185 47.3110425,1.05814696 47.5556757,1.19872204 C50.3128958,2.76038339 53.0344402,5.11693291 53.1159846,7.10031949 C54.3697297,7.45303514 56.2477992,8.14057508 57.7945946,9.37763578 C57.9169112,9.47476038 57.9449421,9.64089457 57.7640154,9.66389776 C54.9201544,10.0370607 53.7963707,11.3354633 53.3759073,11.9258786 C53.3122008,12.0153355 53.3198456,12.1661342 53.3657143,12.258147 C53.9976834,13.6408946 56.1637066,15.2894569 56.1050965,16.4421725 C56.0719691,17.1092652 55.7814672,17.6051118 55.7789189,17.6076677 L55.7789189,17.6076677 C56.7880309,19.4121406 57.7512741,20.0920128 59.8918147,22.9776358 C60.6690347,24.0255591 61.2551351,24.8664537 61.6220849,25.7277955 C61.9788417,26.5610224 62.1266409,27.4070288 62.0323552,28.4677316 C62.0323552,28.4677316 65.9057143,32.886901 65.9668726,38.1392971 C66.0203861,42.7373802 63.2020077,48.3833866 60.9366023,51.9897764 C58.128417,56.4651757 56.4771429,59.9769968 55.692278,62.4536741 C54.5098842,66.1827476 53.5389961,69.8453674 53.1567568,72.0664537 C52.8688031,73.7456869 52.8101931,74.9878594 52.9860232,75.7904153 C53.1694981,76.6159744 55.2514286,77.8172524 57.9882625,78.8319489 C58.4494981,79.0031949 58.5922008,79.9744409 58.5922008,79.9872204 L58.5922008,79.9872204 C56.7345174,79.5450479 51.587027,78.2645367 49.8694981,78.4383387 C49.2222394,78.5022364 48.7508108,78.6095847 48.3583784,78.742492 C47.7085714,78.9623003 47.2906564,79.2434505 46.6867181,79.4939297 C46.6867181,79.4939297 46.6867181,79.4939297 46.6867181,79.4939297 C46.6816216,79.4658147 46.5032432,78.5610224 46.7682625,78.2083067 C46.8727413,78.0626198 47.5989961,77.5003195 47.9812355,77.0070288 C48.5444015,76.2785942 49.102471,75.2306709 49.6274131,73.8376997 C49.5688031,72.6952077 48.7610039,71.629393 48.8654826,70.7527157 C48.9597683,69.9680511 49.4006178,71.3916933 50.4479537,71.228115 C51.1614672,68.6313099 51.5921236,65.513099 51.7628571,64.1073482 C52.2495753,60.1559105 52.85861,57.2651757 51.5105792,57.1476038 C46.6332046,56.7233227 44.6124324,64.2479233 43.6440927,68.1635783 C42.7369112,71.8338658 42.3521236,73.9220447 42.3928958,75.1897764 C42.4183784,76.0306709 42.6324324,76.5111821 42.9993822,76.85623 C43.8530502,77.65623 44.676139,78.1111821 44.9156757,78.3897764 C45.0864093,78.5891374 45.3157529,79.3635783 45.3488803,79.7980831 L45.3488803,79.7980831 C45.3310425,79.7853035 44.1511969,79.1207668 42.1839382,78.9495208 C40.86139,78.8345048 39.1591506,78.8728435 37.5741313,79.14377 C35.8056371,79.4428115 33.4637838,79.9693291 33.4637838,79.9693291 C33.4637838,79.9693291 33.5198456,79.0057508 33.8281853,78.8549521 C35.0844788,78.2364217 36.3942857,77.6690096 37.5002317,76.7846645 C38.6979151,75.8261981 39.2712741,74.5738019 39.5235521,74.0702875 C39.4878764,72.9099042 38.5399228,71.8798722 38.8023938,70.8779553 C38.9068726,70.4766773 39.5235521,71.8159744 40.4562162,71.4990415 C40.4562162,71.4990415 40.4562162,71.4990415 40.4562162,71.4990415 C41.5111969,66.8677316 41.5519691,62.3565495 40.3517375,58.8140575 C39.5770656,56.5367412 38.8457143,55.4479233 37.9359846,54.8753994 C37.3753668,54.5201278 36.6644015,54.2236422 35.6858687,54.7603834 C34.8067181,55.2460064 33.2573745,57.0351438 33.0407722,57.2753994 C29.8732819,60.7667732 24.1244015,61.8351438 21.2117375,59.7316294 C21.2117375,59.7316294 21.2117375,59.7316294 21.2091892,59.7316294 C23.6351351,62.0830671 26.2267181,63.0185304 26.2267181,63.0185304 C26.2267181,63.0185304 23.2248649,65.7507987 18.4825483,64.771885 C17.4250193,64.5546326 15.0092664,63.9182109 12.1144402,62.2466454 L12.1144402,62.2466454 C12.5425483,63.1335463 13.1235521,63.9667732 13.8166795,64.6389776 C15.1672587,65.9527157 15.9546718,66.1290735 15.9546718,66.1290735 C4.5384556,66.1316294 0.183474903,51.5194888 0.0586100386,43.4376997 Z" id="Path" fill="#E21F20"></path>
                <g transform="translate(3.057915, 4.089457)" fill="#B60718" id="Path">
                    <path d="M40.6065637,1.83769968 C38.5679537,2.99552716 37.8646332,4.8971246 38.5654054,6.87028754 C38.8227799,7.60127796 39.1769884,8.17380192 39.6254826,8.6057508 C37.4543629,6.93162939 35.5737452,3.25367412 38.3233205,1.30095847 C39.54139,0.437060703 40.7543629,0.222364217 42.18139,0.171246006 C44.9182239,0.0766773163 47.5913514,1.71757188 48.8731274,2.75782748 C47.2932046,1.63578275 42.7496525,0.621086262 40.6065637,1.83769968 Z"></path>
                    <path d="M43.7383784,4.33482428 C43.656834,4.87923323 44.1002317,5.39297125 44.7322008,5.48753994 C45.3616216,5.57955272 45.937529,5.21661342 46.0190734,4.66964856 C46.0471042,4.50095847 46.0139768,4.33738019 45.9502703,4.18658147 C45.9502703,4.18658147 46.2203861,4.24536741 46.4318919,4.32715655 L46.2331274,3.95399361 C45.6546718,3.62683706 45.0303475,3.46837061 44.7882625,3.43514377 C43.4886486,3.24345048 42.9866409,4.06645367 42.9866409,4.06645367 C43.297529,4.00255591 43.8428571,3.97955272 43.8785328,3.97955272 C43.8071815,4.08434505 43.7587645,4.20447284 43.7383784,4.33482428 Z"></path>
                    <path d="M36.610888,42.8217252 C31.3716602,41.9578275 29.3789189,40.398722 24.3996139,40.3757188 C27.4830116,40.0153355 29.5853282,40.2095847 32.194749,40.4089457 C36.6057915,40.7488818 41.2334363,40.0587859 44.2888031,38.2492013 C47.1428571,36.5546326 48.5902703,33.8504792 48.1061004,30.9111821 C53.6179923,37.1527157 47.2983012,44.5878594 36.610888,42.8217252 Z"></path>
                    <path d="M53.4523552,25.456869 C53.6740541,20.6083067 50.7180695,19.5884984 49.810888,16.7769968 C51.8673359,19.0543131 54.2423166,20.1482428 55.5113514,22.256869 C58.0545174,26.4894569 57.1294981,29.2830671 57.1294981,29.2830671 C56.2299614,26.742492 53.4523552,25.456869 53.4523552,25.456869 Z"></path>
                    <path d="M40.8002317,14.0651757 C41.182471,16.4038339 41.9673359,17.4236422 45.4864865,20.7667732 C48.4475676,23.5808307 48.8782239,26.4383387 48.2156757,28.2530351 C49.8567568,24.3118211 49.0591506,20.8690096 46.2433205,16.9840256 C43.919305,13.7738019 43.3816216,11.5220447 43.4504247,9.54888179 L43.4504247,9.54888179 C42.3903475,9.72779553 41.4908108,9.57444089 40.9735135,9.40830671 C40.9709653,9.40830671 40.9709653,9.4057508 40.968417,9.4057508 C40.7925869,9.59744409 38.1806178,12.5495208 39.4649421,17.5897764 C40.0714286,19.9693291 40.8002317,21.7482428 40.8511969,21.9067093 L40.8511969,21.9092652 L40.8511969,21.9092652 C42.6502703,26.6351438 42.1406178,28.9942492 41.1162162,30.1980831 C45.7056371,28.7667732 45.2749807,23.6498403 42.95861,19.9284345 C40.9582239,16.7079872 40.8206178,15.7674121 40.8002317,14.0651757 Z"></path>
                    <path d="M29.5369112,44.05623 C29.5369112,44.05623 36.8657143,47.7955272 45.3871042,45.7507987 C56.76,43.0236422 55.1112741,30.9571885 51.8163707,29.2626198 C56.4669498,29.5233227 60.0905792,39.6498403 54.1174517,45.6536741 C48.1672587,51.6345048 38.0455598,49.3495208 33.2318919,46.3846645 C30.8798456,44.9380192 29.5369112,44.05623 29.5369112,44.05623 Z"></path>
                    <path d="M9.75984556,30.4025559 C5.56795367,32.5239617 0.94030888,38.3233227 2.49984556,47.7086262 C2.65274131,48.6236422 2.92030888,49.5258786 3.25667954,50.4102236 C3.28725869,50.484345 3.31783784,50.5584665 3.34841699,50.6325879 C3.34841699,50.6325879 -0.626872587,45.4696486 0.40007722,34.8779553 C1.33528958,25.2319489 5.95528958,17.2805112 14.9888803,16.771885 C23.8466409,16.2734824 27.9340541,25.2319489 27.9340541,25.2319489 C27.9340541,25.2319489 23.0694208,18.2108626 14.3084942,19.7035144 C8.79150579,20.6440895 5.87629344,25.9654952 4.75760618,30.3105431 C7.04849421,26.7348243 10.4223938,24.4805112 14.2040154,24.1482428 C22.080695,23.458147 26.0865637,28.8230032 29.9318919,31.5092652 C34.931583,35.000639 40.0128185,33.7584665 41.9902703,32.0434505 C41.6080309,33.2984026 38.5399228,36.8613419 33.4179151,37.7329073 C31.787027,38.0089457 29.5802317,38.0523962 26.5605405,37.7022364 C21.227027,37.086262 13.7733591,36.3092652 10.7358301,42.6172524 C7.69320463,48.9277955 12.2520463,55.9974441 18.4952896,58.2670927 C11.2837066,57.3214058 5.91706564,50.8115016 6.66625483,43.0696486 C7.73142857,32.0894569 18.5819305,32.286262 24.36139,34.4741214 C27.1058687,35.5092652 31.0531274,36.0255591 32.7120463,35.2025559 C32.7120463,35.2025559 28.6679537,35.1591054 24.3562934,32.1686901 C20.5007722,29.4952077 15.6335907,27.4325879 9.75984556,30.4025559 Z"></path>
                    <path d="M32.8522008,49.2268371 C28.6297297,48.4268371 27.0472587,47.5782748 25.380695,46.5124601 C23.7090347,45.4415335 21.8233205,44.9329073 19.8891892,45.0121406 C22.9878764,41.7380192 27.2205405,43.3175719 27.322471,43.3661342 C25.5590734,42.4971246 23.905251,41.5258786 21.3187645,41.8095847 C18.4698069,42.1239617 17.2950579,44.3169329 17.5294981,46.0728435 C18.1920463,51.0236422 26.1120463,48.971246 26.1120463,48.971246 C26.1120463,48.971246 23.293668,52.6543131 18.8749807,51.9309904 C17.2593822,51.6677316 16.1610811,50.9086262 15.4705019,49.9373802 L15.4705019,49.9399361 C16.897529,52.1380192 19.0355212,53.4824281 22.7457915,53.4134185 C26.3133591,53.3520767 27.7735135,51.8696486 30.2708108,50.1265176 C31.0352896,49.6 32.0265637,49.1808307 32.8522008,49.2268371 Z"></path>
                </g>
            </g>
        </g>
    </g>
</svg>